<svg fill="white" height="24" viewBox="0 0 24 24" width="24" xmlns="http://www.w3.org/2000/svg">
  <g fill="#FFFFFF">
    <path d="m9 11.5a1 1 0 1 0 0-2 1 1 0 0 0 0 2zm2-1a1 1 0 0 1 1-1h3a1 1 0 1 1 0 2h-3a1 1 0 0 1 -1-1zm1 2a1 1 0 1 0 0 2h3a1 1 0 1 0 0-2zm0 3a1 1 0 1 0 0 2h3a1 1 0 1 0 0-2zm-2-2a1 1 0 1 1 -2 0 1 1 0 0 1 2 0zm-1 4a1 1 0 1 0 0-2 1 1 0 0 0 0 2z"/>
    <path d="m9 2a1 1 0 0 0 -1 1h-2a2 2 0 0 0 -2 2v15a2 2 0 0 0 2 2h12a2 2 0 0 0 2-2v-15a2 2 0 0 0 -2-2h-2a1 1 0 0 0 -1-1zm7 3h2v15h-12v-15h2v1a1 1 0 0 0 1 1h6a1 1 0 0 0 1-1zm-6 0v-1h4v1z"/>
  </g>
</svg>
